<svg width="60" height="60" viewBox="0 0 60 60" fill="none" xmlns="http://www.w3.org/2000/svg">
<path d="M16.55 26.975C20.15 34.05 25.95 39.85 33.025 43.45L38.525 37.95C39.225 37.25 40.2 37.05 41.075 37.325C43.875 38.25 46.875 38.75 50 38.75C50.663 38.75 51.2989 39.0134 51.7678 39.4822C52.2366 39.9511 52.5 40.587 52.5 41.25V50C52.5 50.663 52.2366 51.2989 51.7678 51.7678C51.2989 52.2366 50.663 52.5 50 52.5C38.7283 52.5 27.9183 48.0223 19.948 40.052C11.9777 32.0817 7.5 21.2717 7.5 10C7.5 9.33696 7.76339 8.70107 8.23223 8.23223C8.70107 7.76339 9.33696 7.5 10 7.5H18.75C19.413 7.5 20.0489 7.76339 20.5178 8.23223C20.9866 8.70107 21.25 9.33696 21.25 10C21.25 13.125 21.75 16.125 22.675 18.925C22.95 19.8 22.75 20.775 22.05 21.475L16.55 26.975Z" fill="white"/>
</svg>
