<svg width="60" height="60" viewBox="0 0 60 60" fill="none" xmlns="http://www.w3.org/2000/svg">
<path d="M30.1 4.9999C16.45 4.9999 5.325 16.1249 5.325 29.7749C5.325 34.1499 6.475 38.3999 8.625 42.1499L5.125 54.9999L18.25 51.5499C21.875 53.5249 25.95 54.5749 30.1 54.5749C43.75 54.5749 54.875 43.4499 54.875 29.7999C54.875 23.1749 52.3 16.9499 47.625 12.2749C45.333 9.95972 42.603 8.12407 39.5941 6.87503C36.5852 5.62599 33.3578 4.98856 30.1 4.9999M30.125 9.1749C35.625 9.1749 40.775 11.3249 44.675 15.2249C46.589 17.1383 48.1065 19.4107 49.1404 21.9118C50.1743 24.4129 50.7043 27.0935 50.7 29.7999C50.7 41.1499 41.45 50.3749 30.1 50.3749C26.4 50.3749 22.775 49.3999 19.625 47.4999L18.875 47.0749L11.075 49.1249L13.15 41.5249L12.65 40.7249C10.5849 37.4466 9.49253 33.6495 9.5 29.7749C9.525 18.4249 18.75 9.1749 30.125 9.1749M21.325 18.3249C20.925 18.3249 20.25 18.4749 19.675 19.0999C19.125 19.7249 17.5 21.2499 17.5 24.2749C17.5 27.3249 19.725 30.2499 20 30.6749C20.35 31.0999 24.4 37.3499 30.625 39.9999C32.1 40.6749 33.25 41.0499 34.15 41.3249C35.625 41.7999 36.975 41.7249 38.05 41.5749C39.25 41.3999 41.7 40.0749 42.225 38.6249C42.75 37.1749 42.75 35.9499 42.6 35.6749C42.425 35.4249 42.025 35.2749 41.4 34.9999C40.775 34.6499 37.725 33.1499 37.175 32.9499C36.6 32.7499 36.25 32.6499 35.775 33.2499C35.375 33.8749 34.175 35.2749 33.825 35.6749C33.45 36.0999 33.1 36.1499 32.5 35.8499C31.85 35.5249 29.85 34.8749 27.5 32.7749C25.65 31.1249 24.425 29.0999 24.05 28.4749C23.75 27.8749 24.025 27.4999 24.325 27.2249C24.6 26.9499 25 26.4999 25.25 26.1249C25.575 25.7749 25.675 25.4999 25.875 25.0999C26.075 24.6749 25.975 24.3249 25.825 24.0249C25.675 23.7499 24.425 20.6499 23.9 19.4249C23.4 18.2249 22.9 18.3749 22.5 18.3499C22.15 18.3499 21.75 18.3249 21.325 18.3249V18.3249Z" fill="white"/>
</svg>
